# xmcd
#
# Track frame offsets: 
#        150
#        22472
#        46995
#        71132
#        84700
#        103281
#        117695
#        140615
#        160248
#        177161
#        205665
#
# Disc length: 3048 seconds
#
# Revision: 1
# Processed by: cddbd v1.5.2PL0 Copyright (c) Steve Scherf et al.
# Submitted via: ExactAudioCopyFreeDBPlugin 1.0
#
DISCID=a90be60b
DTITLE=Bobby Rush With Blinddog Smokin' featuring The Legendary Dr. Jo
DTITLE=hn - Decisions
DYEAR=2014
DGENRE=Blues
TTITLE0=Another Murder in New Orleans
TTITLE1=Decisions
TTITLE2=Bobby Rush's Bus
TTITLE3=If That's the Way You Like It I Like It
TTITLE4=Funky Old Man
TTITLE5=Love of a Woman
TTITLE6=Stand Back
TTITLE7=Skinny Little Women
TTITLE8=Dr. Rush
TTITLE9=Too Much Weekend
TTITLE10=Sittin' Here Waitin'
EXTD=YEAR: 2014
EXTT0=
EXTT1=
EXTT2=
EXTT3=
EXTT4=
EXTT5=
EXTT6=
EXTT7=
EXTT8=
EXTT9=
EXTT10=
PLAYORDER=
